mtllib materials.mtl
v 0.7888089 0.5903053 -0.5533718
v 0.4925208 0.6157103 -0.8094596
v 0.5865115 0.4456072 -0.8569359
v 0.4651736 0.7694671 -0.6844226
v 0.5117977 0.8656788 -0.5153285
v 0.6199002 0.8785655 -0.3474861
v 0.7605149 0.8046744 -0.2258684
v 0.8959645 0.6638041 -0.1830629
v 0.9899552 0.4937011 -0.2305393
v 1.017302 0.3399442 -0.3555763
v 0.9706782 0.2437325 -0.5246702
v 0.8625758 0.2308457 -0.6925126
v 0.721961 0.3047371 -0.8141304
v 0.1368272 0.5668511 -0.9679145
v 0.313472 0.2471621 -1.057141
v 0.08543146 0.8558197 -0.7329218
v 0.1730561 1.036639 -0.4151291
v 0.3762223 1.060858 -0.09968841
v 0.6404915 0.9219875 0.128878
v 0.8950535 0.6572382 0.2093261
v 1.071698 0.337549 0.1200996
v 1.123094 0.04858065 -0.114893
v 1.035469 -0.1322383 -0.4326857
v 0.8323033 -0.1564574 -0.7481263
v 0.5680338 -0.01758718 -0.9766929
v -0.2353696 0.4496217 -1.009625
v 0.0026232 0.01890564 -1.129839
v -0.304615 0.8389478 -0.69302
v -0.1865586 1.082564 -0.2648589
v 0.08716643 1.115195 0.1601332
v 0.4432154 0.9280956 0.4680798
v 0.7861858 0.5713997 0.5764673
v 1.024179 0.1406837 0.4562528
v 1.093424 -0.2486424 0.1396481
v 0.9753676 -0.4922591 -0.2885129
v 0.7016428 -0.5248895 -0.7135048
v 0.3455933 -0.33779 -1.021452
v -0.5791774 0.2781609 -0.9295592
v -0.308542 -0.2116312 -1.066262
v -0.6579204 0.7208865 -0.5695297
v -0.5236716 0.9979172 -0.08264279
v -0.2124031 1.035023 0.4006403
v 0.192481 0.8222616 0.7508245
v 0.5824925 0.416642 0.8740779
v 0.853128 -0.07315028 0.7373751
v 0.9318709 -0.5158756 0.3773456
v 0.7976221 -0.7929062 -0.1095411
v 0.4863538 -0.8300121 -0.5928241
v 0.0814693 -0.6172506 -0.9430085
v -0.8531277 0.07315004 -0.7373753
v -0.5824924 -0.4166421 -0.8740779
v -0.9318707 0.5158756 -0.3773457
v -0.797622 0.7929063 0.1095412
v -0.4863534 0.8300121 0.5928242
v -0.0814693 0.6172507 0.9430083
v 0.3085421 0.2116311 1.066262
v 0.5791776 -0.2781613 0.929559
v 0.6579204 -0.7208865 0.5695295
v 0.5236717 -0.9979171 0.08264282
v 0.2124033 -1.035023 -0.4006402
v -0.1924812 -0.8222613 -0.7508245
v -1.024178 -0.1406839 -0.4562529
v -0.7861855 -0.5713998 -0.5764672
v -1.093424 0.2486423 -0.1396482
v -0.9753673 0.492259 0.2885129
v -0.7016425 0.5248893 0.7135049
v -0.3455935 0.3377901 1.021452
v -0.002623081 -0.01890576 1.129839
v 0.2353698 -0.4496218 1.009624
v 0.304615 -0.8389478 0.6930199
v 0.1865587 -1.082564 0.2648589
v -0.08716619 -1.115195 -0.160133
v -0.4432155 -0.9280955 -0.46808
v -1.071698 -0.3375492 -0.1200998
v -0.8950531 -0.6572383 -0.2093261
v -1.123094 -0.04858065 0.1148929
v -1.035469 0.1322383 0.4326856
v -0.832303 0.1564574 0.7481263
v -0.5680337 0.01758718 0.9766927
v -0.3134718 -0.2471621 1.057141
v -0.136827 -0.5668514 0.9679143
v -0.08543134 -0.8558197 0.7329217
v -0.1730559 -1.036639 0.415129
v -0.3762219 -1.060858 0.09968842
v -0.6404915 -0.9219875 -0.1288782
v -0.9899547 -0.4937012 0.2305393
v -0.8959641 -0.6638041 0.183063
v -1.017302 -0.3399444 0.3555762
v -0.9706779 -0.2437326 0.5246701
v -0.8625755 -0.2308459 0.6925125
v -0.7219608 -0.3047371 0.8141302
v -0.5865114 -0.4456073 0.8569356
v -0.4925206 -0.6157103 0.8094593
v -0.4651735 -0.7694671 0.6844224
v -0.5117977 -0.8656787 0.5153285
v -0.6199 -0.8785655 0.3474861
v -0.7605147 -0.8046742 0.2258684
v -0.7888087 -0.5903054 0.5533717
vn 0.6980609 0.5223942 -0.4897095
vn 0.6980609 0.5223942 -0.4897095
vn 0.6980609 0.5223942 -0.4897095
vn 0.6980609 0.5223942 -0.4897095
vn 0.6980609 0.5223942 -0.4897095
vn 0.6980609 0.5223942 -0.4897095
vn 0.6980609 0.5223942 -0.4897095
vn 0.6980609 0.5223942 -0.4897095
vn 0.6980609 0.5223942 -0.4897095
vn 0.6980609 0.5223942 -0.4897095
vn 0.6980609 0.5223942 -0.4897095
vn 0.6980609 0.5223942 -0.4897095
vn 0.5190366 0.3943427 -0.7583503
vn 0.435859 0.5448763 -0.7163358
vn 0.411658 0.6809444 -0.6056837
vn 0.4529183 0.7660875 -0.4560429
vn 0.5485841 0.7774917 -0.3075098
vn 0.673022 0.7121012 -0.1998836
vn 0.7928889 0.5874373 -0.1620026
vn 0.8760664 0.4369036 -0.2040171
vn 0.9002675 0.3008356 -0.3146692
vn 0.8590072 0.2156925 -0.4643099
vn 0.7633414 0.2042883 -0.612843
vn 0.6389034 0.2696788 -0.7204694
vn 0.2774087 0.2187275 -0.9355229
vn 0.121086 0.5016382 -0.8565615
vn 0.07560299 0.7573626 -0.6486034
vn 0.1531469 0.9173793 -0.3673708
vn 0.3329399 0.9388122 -0.08821979
vn 0.5668066 0.8159183 0.1140514
vn 0.7920826 0.5816268 0.1852443
vn 0.9484054 0.2987159 0.1062829
vn 0.9938884 0.04299175 -0.1016751
vn 0.9163445 -0.117025 -0.3829077
vn 0.7365515 -0.1384579 -0.6620587
vn 0.5026846 -0.01556383 -0.86433
vn 0.002321315 0.01673062 -0.9998575
vn -0.2082918 0.3978952 -0.8934731
vn -0.2695709 0.7424317 -0.613292
vn -0.1650962 0.9580217 -0.2343884
vn 0.07713827 0.9868981 0.1417108
vn 0.3922259 0.8213236 0.41423
vn 0.6957396 0.5056635 0.510148
vn 0.9063527 0.1244988 0.4037636
vn 0.9676317 -0.2200376 0.1235825
vn 0.8631571 -0.4356275 -0.2553211
vn 0.6209227 -0.464504 -0.6314201
vn 0.3058347 -0.2989293 -0.9039396
vn -0.2730461 -0.1872842 -0.9435946
vn -0.5125465 0.2461602 -0.8226187
vn -0.5822304 0.6379525 -0.5040085
vn -0.4634263 0.8831125 -0.0731352
vn -0.1879674 0.9159495 0.354549
vn 0.1703371 0.727665 0.6644464
vn 0.51548 0.3687097 0.7735204
vn 0.7549804 -0.06473479 0.6525444
vn 0.8246644 -0.4565271 0.3339342
vn 0.7058602 -0.7016869 -0.09693903
vn 0.4304014 -0.734524 -0.5246231
vn 0.07209657 -0.5462394 -0.8345207
vn -0.51548 -0.3687098 -0.7735203
vn -0.7549804 0.06473461 -0.6525444
vn -0.8246644 0.456527 -0.3339342
vn -0.7058603 0.7016869 0.0969391
vn -0.4304014 0.7345239 0.5246233
vn -0.0720969 0.5462395 0.8345206
vn 0.2730461 0.1872841 0.9435946
vn 0.5125465 -0.2461604 0.8226187
vn 0.5822303 -0.6379526 0.5040085
vn 0.4634262 -0.8831125 0.07313527
vn 0.1879674 -0.9159495 -0.3545488
vn -0.1703374 -0.7276649 -0.6644464
vn -0.6957396 -0.5056636 -0.5101479
vn -0.9063527 -0.124499 -0.4037636
vn -0.9676318 0.2200374 -0.1235824
vn -0.8631571 0.4356274 0.2553212
vn -0.6209227 0.4645039 0.6314203
vn -0.305835 0.2989293 0.9039395
vn -0.002321377 -0.01673076 0.9998575
vn 0.2082917 -0.3978954 0.893473
vn 0.2695707 -0.7424317 0.6132919
vn 0.1650961 -0.9580217 0.2343884
vn -0.07713828 -0.9868981 -0.1417106
vn -0.3922262 -0.8213234 -0.41423
vn -0.7920826 -0.5816268 -0.1852443
vn -0.9484054 -0.2987161 -0.106283
vn -0.9938884 -0.04299176 0.1016751
vn -0.9163445 0.117025 0.3829077
vn -0.7365515 0.1384579 0.6620587
vn -0.5026848 0.01556394 0.8643299
vn -0.2774087 -0.2187276 0.9355229
vn -0.121086 -0.5016384 0.8565614
vn -0.075603 -0.7573626 0.6486033
vn -0.1531469 -0.9173793 0.3673708
vn -0.3329399 -0.9388122 0.08821987
vn -0.5668067 -0.8159181 -0.1140515
vn -0.7928888 -0.5874373 0.1620027
vn -0.8760664 -0.4369037 0.2040171
vn -0.9002674 -0.3008357 0.3146693
vn -0.8590071 -0.2156926 0.4643099
vn -0.7633413 -0.2042884 0.612843
vn -0.6389035 -0.2696789 0.7204692
vn -0.5190367 -0.3943427 0.7583502
vn -0.4358591 -0.5448763 0.7163357
vn -0.4116581 -0.6809443 0.6056836
vn -0.4529184 -0.7660874 0.4560429
vn -0.5485842 -0.7774916 0.3075099
vn -0.673022 -0.7121011 0.1998836
usemtl mat12
f 3//1 2//1 1//1
f 2//2 4//2 1//2
f 4//3 5//3 1//3
f 5//4 6//4 1//4
f 6//5 7//5 1//5
f 7//6 8//6 1//6
f 8//7 9//7 1//7
f 9//8 10//8 1//8
f 10//9 11//9 1//9
f 11//10 12//10 1//10
f 12//11 13//11 1//11
f 13//12 3//12 1//12
f 15//13 14//13 2//13 3//13
f 14//14 16//14 4//14 2//14
f 16//15 17//15 5//15 4//15
f 17//16 18//16 6//16 5//16
f 18//17 19//17 7//17 6//17
f 19//18 20//18 8//18 7//18
f 20//19 21//19 9//19 8//19
f 21//20 22//20 10//20 9//20
f 22//21 23//21 11//21 10//21
f 23//22 24//22 12//22 11//22
f 24//23 25//23 13//23 12//23
f 25//24 15//24 3//24 13//24
f 27//25 26//25 14//25 15//25
f 26//26 28//26 16//26 14//26
f 28//27 29//27 17//27 16//27
f 29//28 30//28 18//28 17//28
f 30//29 31//29 19//29 18//29
f 31//30 32//30 20//30 19//30
f 32//31 33//31 21//31 20//31
f 33//32 34//32 22//32 21//32
f 34//33 35//33 23//33 22//33
f 35//34 36//34 24//34 23//34
f 36//35 37//35 25//35 24//35
f 37//36 27//36 15//36 25//36
f 39//37 38//37 26//37 27//37
f 38//38 40//38 28//38 26//38
f 40//39 41//39 29//39 28//39
f 41//40 42//40 30//40 29//40
f 42//41 43//41 31//41 30//41
f 43//42 44//42 32//42 31//42
f 44//43 45//43 33//43 32//43
f 45//44 46//44 34//44 33//44
f 46//45 47//45 35//45 34//45
f 47//46 48//46 36//46 35//46
f 48//47 49//47 37//47 36//47
f 49//48 39//48 27//48 37//48
f 51//49 50//49 38//49 39//49
f 50//50 52//50 40//50 38//50
f 52//51 53//51 41//51 40//51
f 53//52 54//52 42//52 41//52
f 54//53 55//53 43//53 42//53
f 55//54 56//54 44//54 43//54
f 56//55 57//55 45//55 44//55
f 57//56 58//56 46//56 45//56
f 58//57 59//57 47//57 46//57
f 59//58 60//58 48//58 47//58
f 60//59 61//59 49//59 48//59
f 61//60 51//60 39//60 49//60
f 63//61 62//61 50//61 51//61
f 62//62 64//62 52//62 50//62
f 64//63 65//63 53//63 52//63
f 65//64 66//64 54//64 53//64
f 66//65 67//65 55//65 54//65
f 67//66 68//66 56//66 55//66
f 68//67 69//67 57//67 56//67
f 69//68 70//68 58//68 57//68
f 70//69 71//69 59//69 58//69
f 71//70 72//70 60//70 59//70
f 72//71 73//71 61//71 60//71
f 73//72 63//72 51//72 61//72
f 75//73 74//73 62//73 63//73
f 74//74 76//74 64//74 62//74
f 76//75 77//75 65//75 64//75
f 77//76 78//76 66//76 65//76
f 78//77 79//77 67//77 66//77
f 79//78 80//78 68//78 67//78
f 80//79 81//79 69//79 68//79
f 81//80 82//80 70//80 69//80
f 82//81 83//81 71//81 70//81
f 83//82 84//82 72//82 71//82
f 84//83 85//83 73//83 72//83
f 85//84 75//84 63//84 73//84
f 87//85 86//85 74//85 75//85
f 86//86 88//86 76//86 74//86
f 88//87 89//87 77//87 76//87
f 89//88 90//88 78//88 77//88
f 90//89 91//89 79//89 78//89
f 91//90 92//90 80//90 79//90
f 92//91 93//91 81//91 80//91
f 93//92 94//92 82//92 81//92
f 94//93 95//93 83//93 82//93
f 95//94 96//94 84//94 83//94
f 96//95 97//95 85//95 84//95
f 97//96 87//96 75//96 85//96
f 98//97 86//97 87//97
f 98//98 88//98 86//98
f 98//99 89//99 88//99
f 98//100 90//100 89//100
f 98//101 91//101 90//101
f 98//102 92//102 91//102
f 98//103 93//103 92//103
f 98//104 94//104 93//104
f 98//105 95//105 94//105
f 98//106 96//106 95//106
f 98//107 97//107 96//107
f 98//108 87//108 97//108
